<svg xmlns="http://www.w3.org/2000/svg" width="22" height="18" viewBox="0 0 22 18" fill="none">
  <path d="M 11 18 L 4 14.2 L 4 8.2 L 0 6 L 11 0 L 22 6 L 22 14 L 20 14 L 20 7.1 L 18 8.2 L 18 14.2 L 11 18 L 11 18 M 11 9.7 L 17.85 6 L 11 2.3 L 4.15 6 L 11 9.7 L 11 9.7 M 11 15.725 L 16 13.025 L 16 9.25 L 11 12 L 6 9.25 L 6 13.025 L 11 15.725 L 11 15.725 M 11 9.7 L 11 9.7 L 11 9.7 L 11 9.7 L 11 9.7 L 11 9.7 M 11 11.95 L 11 11.95 L 11 11.95 L 11 11.95 L 11 11.95 L 11 11.95 L 11 11.95 L 11 11.95 L 11 11.95 L 11 11.95 M 11 11.95 L 11 11.95 L 11 11.95 L 11 11.95 L 11 11.95 L 11 11.95 L 11 11.95 L 11 11.95 L 11 11.95 L 11 11.95" fill="currentColor" fill-rule="nonzero"/>
</svg>
