<svg xmlns="http://www.w3.org/2000/svg" width="19.012" height="20" viewBox="0 0 19.012 20" fill="none">
  <path d="M 3 20 L 3 15.7 C 2.05 14.833 1.313 13.821 0.788 12.663 C 0.263 11.504 0 10.283 0 9 C 0 6.5 0.875 4.375 2.625 2.625 C 4.375 0.875 6.5 0 9 0 C 11.083 0 12.929 0.612 14.538 1.837 C 16.146 3.063 17.192 4.658 17.675 6.625 L 18.975 11.75 C 19.058 12.067 19 12.354 18.8 12.613 C 18.6 12.871 18.333 13 18 13 L 16 13 L 16 16 C 16 16.55 15.804 17.021 15.413 17.413 C 15.021 17.804 14.55 18 14 18 L 12 18 L 12 20 L 10 20 L 10 16 L 14 16 L 14 16 L 14 16 L 14 11 L 16.7 11 L 15.75 7.125 C 15.367 5.608 14.55 4.375 13.3 3.425 C 12.05 2.475 10.617 2 9 2 C 7.067 2 5.417 2.675 4.05 4.025 C 2.683 5.375 2 7.017 2 8.95 C 2 9.95 2.204 10.9 2.612 11.8 C 3.021 12.7 3.6 13.5 4.35 14.2 L 5 14.8 L 5 20 L 3 20 L 3 20 M 9.35 11 L 9.35 11 L 9.35 11 L 9.35 11 L 9.35 11 L 9.35 11 L 9.35 11 L 9.35 11 L 9.35 11 L 9.35 11 L 9.35 11 L 9.35 11 L 9.35 11 L 9.35 11 L 9.35 11 L 9.35 11 L 9.35 11 L 9.35 11 M 8 13 L 10 13 L 10.15 11.75 C 10.283 11.7 10.404 11.642 10.512 11.575 C 10.621 11.508 10.717 11.433 10.8 11.35 L 11.95 11.85 L 12.95 10.15 L 11.95 9.4 C 11.983 9.267 12 9.133 12 9 C 12 8.867 11.983 8.733 11.95 8.6 L 12.95 7.85 L 11.95 6.15 L 10.8 6.65 C 10.717 6.567 10.621 6.492 10.512 6.425 C 10.404 6.358 10.283 6.3 10.15 6.25 L 10 5 L 8 5 L 7.85 6.25 C 7.717 6.3 7.596 6.358 7.488 6.425 C 7.379 6.492 7.283 6.567 7.2 6.65 L 6.05 6.15 L 5.05 7.85 L 6.05 8.6 C 6.017 8.733 6 8.867 6 9 C 6 9.133 6.017 9.267 6.05 9.4 L 5.05 10.15 L 6.05 11.85 L 7.2 11.35 C 7.283 11.433 7.379 11.508 7.488 11.575 C 7.596 11.642 7.717 11.7 7.85 11.75 L 8 13 L 8 13 M 9 10.5 C 8.583 10.5 8.229 10.354 7.938 10.063 C 7.646 9.771 7.5 9.417 7.5 9 C 7.5 8.583 7.646 8.229 7.938 7.938 C 8.229 7.646 8.583 7.5 9 7.5 C 9.417 7.5 9.771 7.646 10.063 7.938 C 10.354 8.229 10.5 8.583 10.5 9 C 10.5 9.417 10.354 9.771 10.063 10.063 C 9.771 10.354 9.417 10.5 9 10.5 L 9 10.5" fill="currentColor" fill-rule="nonzero"/>
</svg>
