<svg xmlns="http://www.w3.org/2000/svg" width="16" height="20" viewBox="0 0 16 20" fill="none">
  <path d="M 8 20 C 5.683 19.417 3.771 18.088 2.263 16.013 C 0.754 13.938 0 11.633 0 9.1 L 0 3 L 8 0 L 16 3 L 16 9.1 C 16 11.633 15.246 13.938 13.738 16.013 C 12.229 18.088 10.317 19.417 8 20 L 8 20 M 8 17.9 C 9.733 17.35 11.167 16.25 12.3 14.6 C 13.433 12.95 14 11.117 14 9.1 L 14 4.375 L 8 2.125 L 2 4.375 L 2 9.1 C 2 11.117 2.567 12.95 3.7 14.6 C 4.833 16.25 6.267 17.35 8 17.9 L 8 17.9 M 8 10 L 8 10 L 8 10 L 8 10 L 8 10 L 8 10 L 8 10 L 8 10 L 8 10 L 8 10" fill="currentColor" fill-rule="nonzero"/>
</svg>
